<?xml version="1.0" encoding="UTF-8" standalone="no"?>
<!-- Created with Inkscape (http://www.inkscape.org/) -->

<svg
   xmlns:dc="http://purl.org/dc/elements/1.1/"
   xmlns:cc="http://creativecommons.org/ns#"
   xmlns:rdf="http://www.w3.org/1999/02/22-rdf-syntax-ns#"
   xmlns:svg="http://www.w3.org/2000/svg"
   xmlns="http://www.w3.org/2000/svg"
   version="1.1"
   width="3.8597801in"
   height="5.03828in"
   viewBox="0 0 3860 5038"
   id="svg2"
   xml:space="preserve"
   style="fill-rule:evenodd"><metadata
   id="metadata14"><rdf:RDF><cc:Work
       rdf:about=""><dc:format>image/svg+xml</dc:format><dc:type
         rdf:resource="http://purl.org/dc/dcmitype/StillImage" /><dc:title></dc:title></cc:Work></rdf:RDF></metadata>
 <defs
   id="defs4">
  <style
   type="text/css"
   id="style6" />
 </defs>
 <g
   id="__x0023_Layer_x0020_1">
  <metadata
   id="CorelCorpID_0Corel-Layer" />
  <path
   d="M 3716,772 C 3635,562 3516,437 3390,319 3264,202 3041,87 2856,48 2723,14 2526,-1 2275,-1 l -1955,0 0,2334 -319,0 0,523 319,0 0,212 -319,0 0,523 319,0 0,1445 561,0 0,-1445 2008,0 0,-523 -2008,0 0,-212 35,0 1404,0 c 541,0 928,-151 1169,-445 231,-281 372,-526 372,-956 0,-249 -69,-479 -143,-684 z m -737,1322 0,0 c -141,161 -327,239 -653,239 l -1412,0 0,0 -35,0 0,-1798 1436,0 c 230,0 389,15 470,44 135,86 241,151 319,298 81,151 122,332 122,538 0,293 -114,523 -247,679 z"
   id="path10"
   style="fill:#373435;fill-rule:nonzero" />
 </g>
</svg>