<?xml version="1.0" encoding="UTF-8" standalone="no"?>
<!-- Created with Inkscape (http://www.inkscape.org/) -->

<svg
   xmlns:dc="http://purl.org/dc/elements/1.1/"
   xmlns:cc="http://creativecommons.org/ns#"
   xmlns:rdf="http://www.w3.org/1999/02/22-rdf-syntax-ns#"
   xmlns:svg="http://www.w3.org/2000/svg"
   xmlns="http://www.w3.org/2000/svg"
   xmlns:sodipodi="http://sodipodi.sourceforge.net/DTD/sodipodi-0.dtd"
   xmlns:inkscape="http://www.inkscape.org/namespaces/inkscape"
   version="1.1"
   width="5in"
   height="6in"
   viewBox="0 0 4969.0792 5963.1514"
   id="svg2"
   xml:space="preserve"
   style="fill-rule:evenodd"
   sodipodi:docname="rub_sign.svg"
   inkscape:version="0.92.1 r15371"><sodipodi:namedview
     pagecolor="#ffffff"
     bordercolor="#666666"
     borderopacity="1"
     objecttolerance="10"
     gridtolerance="10"
     guidetolerance="10"
     inkscape:pageopacity="0"
     inkscape:pageshadow="2"
     inkscape:window-width="1920"
     inkscape:window-height="1018"
     id="namedview18"
     showgrid="false"
     inkscape:zoom="0.63451602"
     inkscape:cx="1204.0786"
     inkscape:cy="541.76098"
     inkscape:window-x="-8"
     inkscape:window-y="-8"
     inkscape:window-maximized="1"
     inkscape:current-layer="svg2" /><metadata
     id="metadata32"><rdf:RDF><cc:Work
         rdf:about=""><dc:format>image/svg+xml</dc:format><dc:type
           rdf:resource="http://purl.org/dc/dcmitype/StillImage" /><dc:title></dc:title></cc:Work></rdf:RDF></metadata><defs
     id="defs4"><style
       type="text/css"
       id="style6" /></defs><path
     inkscape:connector-curvature="0"
     style="fill:#373435;fill-rule:nonzero"
     id="path26"
     d="m 4302.256,1236.5421 c -81,-209 -199,-332.99996 -324,-449.99996 -125,-117 -347,-230.00014 -531,-269.00014 -133,-34 -328,-49 -578,-49 H 925.25603 v 2320.0001 h -318 v 520 h 318 v 211 h -318 v 520 h 318 V 5476.5414 H 1482.256 V 4039.5421 h 1996 v -520 h -1996 v -211 h 35 1396 c 537,0 922,-150 1162,-442 229,-279 369,-523 369,-951 0,-248 -69,-476 -143,-680 z m -732,1314 v 0 c -140,160 -325,238 -649,238 h -1403 v 0 h -35 v -1787 h 1427 c 228,0 386,15 467,44 134,85 239,151 317,296 81,151 121,330 121,534 0,291 -113,520 -246,675 z" /></svg>